<?xml version="1.0" encoding="utf-8"?>
<!-- Generator: Adobe Illustrator 27.7.0, SVG Export Plug-In . SVG Version: 6.00 Build 0)  -->
<svg version="1.1" id="Layer_1" xmlns="http://www.w3.org/2000/svg" xmlns:xlink="http://www.w3.org/1999/xlink" x="0px" y="0px"
	 viewBox="0 0 500 500" style="enable-background:new 0 0 500 500;" xml:space="preserve">
<style type="text/css">
	.st0{fill:#010101;}
</style>
<g>
	<path class="st0" d="M68.8,96.6C77.4,88.2,86,80,94.4,71.5c3.8-3.8,5.7-0.4,7.8,1.8c32.2,32.2,64.4,64.4,96.7,96.6
		c15.5,15.5,31,30.9,46.4,46.5c3.1,3.2,5.1,4.1,8.8,0.3c34.5-34.4,69.3-68.6,103.9-102.9c13.4-13.3,26.5-27,39.4-40.7
		c3.5-3.7,5.6-3.9,9.4-0.2c8,7.8,16.6,15.1,25,22.6c-52.4,52.3-102.8,102.7-153,152.8c51.1,51.1,101.7,101.6,151.7,151.7
		c-10.4,10.4-19.8,19.8-29.7,29.7c-14.1-14.7-29.1-30.6-44.4-46c-12.9-13.1-26.5-25.6-39.5-38.6c-13-13-25.6-26.5-38.6-39.5
		c-8.3-8.3-17-16.2-25.4-24.5c-3.8-3.8-5.6-0.5-7.8,1.7c-28.6,28.5-57.1,57.1-85.6,85.6c-20.6,20.5-41.2,41.1-61.4,61.2
		c-9.3-9.3-18.7-18.7-28.8-28.7c5.5-5.3,11.4-11.2,17.5-17c5.7-5.4,11.6-10.5,17.2-16.1c34.9-34.8,69.7-69.6,104.5-104.5
		c3.3-3.3,6.5-6.6,9.9-9.8c3.4-3.2,2.5-5.7-0.6-8.6c-12.5-11.9-24.9-24-37.2-36.1c-10-9.8-19.9-19.8-29.7-29.8
		c-9.4-9.6-18.7-19.3-28.2-28.8c-8.2-8.2-16.7-16-25-24.2C88.3,116.6,79.1,107,68.8,96.6z"/>
</g>
</svg>
