<?xml version="1.0" encoding="utf-8"?>
<!-- Generator: Adobe Illustrator 27.7.0, SVG Export Plug-In . SVG Version: 6.00 Build 0)  -->
<svg version="1.1" id="Layer_1" xmlns="http://www.w3.org/2000/svg" xmlns:xlink="http://www.w3.org/1999/xlink" x="0px" y="0px"
	 viewBox="0 0 500 500" style="enable-background:new 0 0 500 500;" xml:space="preserve">
<g>
	<path d="M375.2,374.7c20.6,0,40.2,0,61,0c-1.7,2.1-2.5,3.4-3.7,4.5c-24.7,24.7-49.4,49.4-74,74.1c-2.7,2.7-4.6,4.7-8.3,0.9
		c-25.3-25.6-50.8-51-76.3-76.5c-0.6-0.6-1-1.3-2.2-2.9c21.1,0,41.2,0,61.9,0c0-111.5,0-222.2,0-333.3c14,0,27.6,0,41.6,0
		C375.2,152.3,375.2,263,375.2,374.7z"/>
	<path d="M229.1,436.8c-48.2,0-96.3,0-145.3,0c0-9.5-1.1-19.3,0.5-28.7c0.8-4.8,6.1-9,9.7-13.1c12.9-14.9,26-29.7,39.1-44.4
		c10.7-12,21.4-24,32.1-36c0.4-0.4,0.3-1.1,0.6-2.2c-27.3,0-54.3,0-81.6,0c0-14,0-27.6,0-41.5c48.1,0,96.4,0,145.5,0
		c-1.2,11.1,3.3,23-4.5,33.2c-6,7.8-13,14.8-19.5,22.3c-13.6,15.7-27,31.5-40.7,47.1c-6.2,7-12.7,13.7-20.1,21.6c29,0,56.4,0,84.2,0
		C229.1,409.2,229.1,422.9,229.1,436.8z"/>
	<path d="M228.1,207.9c-12.4,0-24.7,0.1-37.1-0.2c-1.5,0-3.5-1.9-4.2-3.4c-2.5-5.4-3.1-13.4-7.2-16.1c-4.5-2.9-12.1-1.1-18.3-1.2
		c-8.2-0.1-16.5,0-24.7-0.1c-3.3,0-5,0.6-6.3,4.4c-5.4,16.5-5.6,16.4-23.4,16.4c-7.4,0-14.8,0-22.7,0c6.1-18.6,11.8-37.1,18.1-55.3
		c8.4-24.3,17.1-48.5,25.8-72.6c4.2-11.6,8.5-23.2,13-34.7c0.6-1.6,2.6-2.7,4-4c0.1-0.1,0.4,0,0.6,0c7.4,0,16-2.3,21.8,0.8
		c4.7,2.5,6.5,11.2,8.8,17.4c9.3,25.8,18.2,51.7,27.4,77.5c8.1,22.7,16.3,45.3,24.4,68C228.4,205.7,228.1,206.6,228.1,207.9z
		 M157.9,109.8c-0.6,0.2-1.2,0.4-1.7,0.6c-4.1,11.5-8.2,23-12.3,34.5c8.3,0,16.3,0,24.8,0C165,132.9,161.5,121.3,157.9,109.8z"/>
</g>
</svg>
