<?xml version="1.0" encoding="utf-8"?>
<!-- Generator: Adobe Illustrator 27.7.0, SVG Export Plug-In . SVG Version: 6.00 Build 0)  -->
<svg version="1.1" id="Layer_1" xmlns="http://www.w3.org/2000/svg" xmlns:xlink="http://www.w3.org/1999/xlink" x="0px" y="0px"
	 viewBox="0 0 500 500" style="enable-background:new 0 0 500 500;" xml:space="preserve">
<g>
	<path d="M271.5,353.7c0,14.3,0,27.7,0,41.5c19.9,0,39.5,0,60,0c-0.9,1.7-1.2,2.9-1.9,3.7c-25.3,25.3-50.7,50.6-75.9,76
		c-2.6,2.6-4.4,3.5-7.4,0.4c-25.4-25.6-50.9-51-76.3-76.5c-0.7-0.7-1.1-1.6-2.2-3.2c20.9,0,41,0,61.4,0c0-14,0-27.6,0-42
		c-2,0-4.3,0-6.6,0c-46.7,0-93.3,0.1-140,0c-22.7,0-40.5-19.1-40.5-40.2c0-82,0-164.1,0-246.1c0-1.5,0-3,0-4.9c13.7,0,27.3,0,41.3,0
		c0,82.7,0,165.7,0,249.1c111.3,0,222.1,0,333.3,0c0-82.8,0-165.7,0-249.2c14.1,0,27.6,0,41.7,0c0.1,1.6,0.3,3.5,0.3,5.3
		c0,79.9,0.1,159.7-0.1,239.6c-0.1,22.1-11,40.7-34.9,45.5c-2.3,0.5-4.6,0.8-6.9,0.8c-46.2,0-92.4,0-138.7,0
		C276.1,353.7,274,353.7,271.5,353.7z"/>
	<path d="M146.3,270.4c0-13.6-0.1-26.4,0.1-39.2c0-2,1.3-4.5,2.8-6c39.8-40,79.7-79.8,119.5-119.8c3.6-3.7,6.3-4.1,10.1-0.2
		c11.3,11.6,23,22.9,34.4,34.5c1,1,1.3,4.3,0.5,5.2c-35,34.9-70.1,69.6-105.2,104.3c-7.1,7-13.1,16.7-21.6,20.2
		c-8.5,3.5-19.6,0.9-29.6,1C153.8,270.4,150.4,270.4,146.3,270.4z"/>
	<path d="M288.4,85.2c7.3-7,13.9-13.6,20.7-19.9c4.9-4.6,10.6-4.5,16.3,1c8.5,8,16.8,16.3,24.9,24.8c5.9,6.2,5.5,9.6-2.1,18.4
		c-4.6,5.2-9.6,10.1-14.8,14.6c-1.2,1-4.9,0.8-6.1-0.4C314.4,111.3,301.9,98.7,288.4,85.2z"/>
</g>
</svg>
