<?xml version="1.0" encoding="UTF-8"?>
<svg xmlns="http://www.w3.org/2000/svg" xmlns:xlink="http://www.w3.org/1999/xlink" width="500px" height="500px"
	viewBox="0 0 500 281" version="1.1">
	<g id="surface1">
		<path style=" stroke:none;fill-rule:nonzero;fill:rgb(23.921569%,86.27451%,51.764706%);fill-opacity:1;"
			d="M 365.1875 209.914062 C 353.6875 209.917969 344.363281 200.625 344.363281 189.15625 C 344.359375 177.6875 353.679688 168.390625 365.179688 168.386719 C 376.679688 168.386719 386.003906 177.679688 386.007812 189.148438 C 385.992188 200.609375 376.683594 209.898438 365.1875 209.914062 M 135.058594 209.914062 C 123.558594 209.917969 114.234375 200.625 114.234375 189.15625 C 114.230469 177.6875 123.550781 168.390625 135.050781 168.386719 C 146.550781 168.386719 155.875 177.679688 155.878906 189.148438 C 155.867188 200.609375 146.554688 209.902344 135.058594 209.914062 M 372.65625 84.851562 L 414.261719 12.988281 C 416.65625 8.859375 415.242188 3.578125 411.101562 1.191406 C 406.960938 -1.195312 401.664062 0.214844 399.273438 4.34375 L 357.136719 77.117188 C 324.917969 62.453125 288.730469 54.289062 250.121094 54.289062 C 211.507812 54.289062 175.324219 62.464844 143.105469 77.117188 L 100.976562 4.34375 C 98.585938 0.214844 93.289062 -1.199219 89.148438 1.183594 C 85.007812 3.566406 83.589844 8.847656 85.980469 12.976562 L 127.59375 84.851562 C 56.140625 123.605469 7.269531 195.738281 0.121094 280.960938 L 500.125 280.960938 C 492.96875 195.738281 444.101562 123.605469 372.65625 84.851562 " />
	</g>
</svg>