<?xml version="1.0" encoding="UTF-8"?>
<svg xmlns="http://www.w3.org/2000/svg" xmlns:xlink="http://www.w3.org/1999/xlink" width="500px" height="500px"
	viewBox="0 0 500 377" version="1.1">
	<g id="surface1">
		<path style=" stroke:none;fill-rule:nonzero;fill:rgb(34.509804%,39.607843%,94.901961%);fill-opacity:1;"
			d="M 423.089844 31.574219 C 390.328125 16.609375 355.738281 5.996094 320.210938 0 C 315.347656 8.667969 310.949219 17.589844 307.03125 26.722656 C 269.183594 21.035156 230.699219 21.035156 192.851562 26.722656 C 188.933594 17.589844 184.53125 8.671875 179.671875 0 C 144.121094 6.046875 109.507812 16.6875 76.710938 31.652344 C 11.601562 127.742188 -6.046875 221.441406 2.777344 313.816406 C 40.90625 341.914062 83.585938 363.289062 128.957031 377 C 139.175781 363.292969 148.214844 348.753906 155.984375 333.53125 C 141.226562 328.035156 126.988281 321.253906 113.425781 313.265625 C 116.996094 310.683594 120.484375 308.023438 123.859375 305.441406 C 203.757812 342.921875 296.242188 342.921875 376.140625 305.441406 C 379.554688 308.21875 383.042969 310.878906 386.574219 313.265625 C 372.984375 321.269531 358.71875 328.0625 343.9375 333.570312 C 351.699219 348.785156 360.738281 363.3125 370.964844 377 C 416.375 363.34375 459.085938 341.980469 497.222656 313.855469 C 507.578125 206.730469 479.53125 113.890625 423.089844 31.574219 Z M 167.160156 257.007812 C 142.566406 257.007812 122.25 234.746094 122.25 207.359375 C 122.25 179.972656 141.863281 157.515625 167.082031 157.515625 C 192.304688 157.515625 212.464844 179.972656 212.03125 207.359375 C 211.601562 234.746094 192.222656 257.007812 167.160156 257.007812 Z M 332.839844 257.007812 C 308.207031 257.007812 287.96875 234.746094 287.96875 207.359375 C 287.96875 179.972656 307.578125 157.515625 332.839844 157.515625 C 358.097656 157.515625 378.101562 179.972656 377.671875 207.359375 C 377.238281 234.746094 357.902344 257.007812 332.839844 257.007812 Z M 332.839844 257.007812 " />
	</g>
</svg>