<?xml version="1.0" encoding="UTF-8"?>
<svg xmlns="http://www.w3.org/2000/svg" xmlns:xlink="http://www.w3.org/1999/xlink" width="500px" height="500px"
	viewBox="0 0 500 500" version="1.1">
	<defs>
		<clipPath id="clip1">
			<path d="M 0 0.613281 L 499.386719 0.613281 L 499.386719 500 L 0 500 Z M 0 0.613281 " />
		</clipPath>
	</defs>
	<g id="surface1">
		<g clip-path="url(#clip1)" clip-rule="nonzero">
			<path style=" stroke:none;fill-rule:nonzero;fill:rgb(94.117647%,23.529412%,18.039216%);fill-opacity:1;"
				d="M 489.976562 228.070312 L 271.933594 10.042969 C 259.371094 -2.527344 238.996094 -2.527344 226.433594 10.042969 L 181.175781 55.324219 L 238.597656 112.75 C 252.371094 108.074219 267.601562 111.621094 277.890625 121.902344 C 288.238281 132.261719 291.761719 147.617188 286.960938 161.449219 L 342.324219 216.800781 C 356.164062 211.992188 371.527344 215.523438 381.878906 225.886719 C 396.824219 240.828125 396.824219 265.058594 381.878906 280 C 366.921875 294.945312 342.683594 294.945312 327.722656 280 C 316.808594 269.070312 313.535156 252.652344 319.417969 238.371094 L 267.789062 186.753906 L 267.789062 322.609375 C 278.84375 328.070312 286.589844 338.527344 288.59375 350.691406 C 290.597656 362.859375 286.617188 375.246094 277.898438 383.96875 C 262.953125 398.914062 238.726562 398.914062 223.78125 383.96875 C 208.832031 369.023438 208.832031 344.789062 223.78125 329.847656 C 227.363281 326.261719 231.617188 323.417969 236.304688 321.484375 L 236.304688 184.378906 C 226.878906 180.5 219.390625 173.019531 215.496094 163.601562 C 211.597656 154.183594 211.617188 143.601562 215.542969 134.195312 L 158.925781 77.566406 L 9.402344 227.050781 C -3.144531 239.617188 -3.144531 259.972656 9.402344 272.542969 L 227.457031 490.597656 C 240.027344 503.140625 260.375 503.140625 272.945312 490.597656 L 489.976562 273.566406 C 502.523438 260.996094 502.523438 240.640625 489.976562 228.070312 " />
		</g>
	</g>
</svg>