<?xml version="1.0" encoding="UTF-8"?>
<svg xmlns="http://www.w3.org/2000/svg" xmlns:xlink="http://www.w3.org/1999/xlink" width="500px" height="500px"
	viewBox="0 0 500 564" version="1.1">
	<g id="surface1">
		<path style=" stroke:none;fill-rule:nonzero;fill:rgb(32.54902%,61.960784%,26.27451%);fill-opacity:1;"
			d="M 250 562.953125 C 242.234375 562.953125 234.988281 560.886719 228.261719 557.265625 L 159.421875 516.40625 C 149.066406 510.71875 154.246094 508.648438 157.351562 507.613281 C 171.324219 502.960938 173.914062 501.925781 188.40625 493.652344 C 189.957031 492.617188 192.027344 493.132812 193.582031 494.167969 L 246.375 525.714844 C 248.445312 526.75 251.035156 526.75 252.589844 525.714844 L 459.109375 406.246094 C 461.179688 405.210938 462.214844 403.144531 462.214844 400.558594 L 462.214844 162.136719 C 462.214844 159.550781 461.179688 157.480469 459.109375 156.449219 L 252.589844 37.496094 C 250.519531 36.460938 247.929688 36.460938 246.375 37.496094 L 39.855469 156.449219 C 37.785156 157.480469 36.75 160.066406 36.75 162.136719 L 36.75 400.558594 C 36.75 402.625 37.785156 405.210938 39.855469 406.246094 L 96.273438 438.828125 C 126.8125 454.34375 145.960938 436.242188 145.960938 418.140625 L 145.960938 182.824219 C 145.960938 179.722656 148.550781 176.617188 152.175781 176.617188 L 178.570312 176.617188 C 181.675781 176.617188 184.78125 179.203125 184.78125 182.824219 L 184.78125 418.140625 C 184.78125 459 162.527344 482.789062 123.707031 482.789062 C 111.800781 482.789062 102.484375 482.789062 76.085938 469.859375 L 21.738281 438.828125 C 8.28125 431.070312 0 416.589844 0 401.074219 L 0 162.652344 C 0 147.136719 8.28125 132.65625 21.738281 124.898438 L 228.261719 5.429688 C 241.199219 -1.808594 258.800781 -1.808594 271.738281 5.429688 L 478.261719 124.898438 C 491.71875 132.65625 500 147.136719 500 162.652344 L 500 401.074219 C 500 416.589844 491.71875 431.070312 478.261719 438.828125 L 271.738281 558.300781 C 265.011719 561.402344 257.246094 562.953125 250 562.953125 Z M 313.664062 399.007812 C 223.085938 399.007812 204.453125 357.632812 204.453125 322.464844 C 204.453125 319.359375 207.039062 316.257812 210.664062 316.257812 L 237.578125 316.257812 C 240.683594 316.257812 243.269531 318.324219 243.269531 321.429688 C 247.410156 348.839844 259.316406 362.285156 314.183594 362.285156 C 357.660156 362.285156 376.292969 352.460938 376.292969 329.1875 C 376.292969 315.738281 371.117188 305.914062 303.3125 299.191406 C 246.894531 293.5 211.699219 281.089844 211.699219 236.09375 C 211.699219 194.203125 246.894531 169.378906 305.902344 169.378906 C 372.152344 169.378906 404.761719 192.132812 408.902344 241.78125 C 408.902344 243.335938 408.386719 244.886719 407.351562 246.4375 C 406.316406 247.472656 404.761719 248.507812 403.210938 248.507812 L 376.292969 248.507812 C 373.707031 248.507812 371.117188 246.4375 370.601562 243.851562 C 364.390625 215.40625 348.34375 206.097656 305.902344 206.097656 C 258.28125 206.097656 252.589844 222.648438 252.589844 235.058594 C 252.589844 250.058594 259.316406 254.710938 323.5 262.988281 C 387.164062 271.261719 417.183594 283.15625 417.183594 327.636719 C 416.667969 373.148438 379.398438 399.007812 313.664062 399.007812 Z M 313.664062 399.007812 " />
	</g>
</svg>