<?xml version="1.0" encoding="UTF-8"?>
<svg xmlns="http://www.w3.org/2000/svg" xmlns:xlink="http://www.w3.org/1999/xlink" width="500px" height="500px"
	viewBox="0 0 500 434" version="1.1">
	<g id="surface1">
		<path style=" stroke:none;fill-rule:nonzero;fill:rgb(38.039216%,85.490196%,98.431373%);fill-opacity:1;"
			d="M 293.554688 217 C 293.554688 241.011719 274.054688 260.476562 250 260.476562 C 225.945312 260.476562 206.445312 241.011719 206.445312 217 C 206.445312 192.988281 225.945312 173.523438 250 173.523438 C 274.054688 173.523438 293.554688 192.988281 293.554688 217 Z M 293.554688 217 " />
		<path
			style="fill:none;stroke-width:1;stroke-linecap:butt;stroke-linejoin:miter;stroke:rgb(38.039216%,85.490196%,98.431373%);stroke-opacity:1;stroke-miterlimit:4;"
			d="M 11.000024 0 C 11.000024 -2.319602 6.075192 -4.199927 0 -4.199927 C -6.075192 -4.199927 -11.000024 -2.319602 -11.000024 0 C -11.000024 2.319602 -6.075192 4.199927 0 4.199927 C 6.075192 4.199927 11.000024 2.319602 11.000024 0 Z M 11.000024 0 "
			transform="matrix(21.246758,0,0,21.208514,250,217)" />
		<path
			style="fill:none;stroke-width:1;stroke-linecap:butt;stroke-linejoin:miter;stroke:rgb(38.039216%,85.490196%,98.431373%);stroke-opacity:1;stroke-miterlimit:4;"
			d="M 10.999994 0.0000889449 C 11.00005 -2.31961 6.075081 -4.200079 -0.0000418563 -4.200039 C -6.075164 -4.199999 -11.00003 -2.319629 -10.999994 -0.0000889449 C -11.00005 2.31961 -6.075081 4.200079 0.0000418563 4.200039 C 6.075164 4.199999 11.00003 2.319629 10.999994 0.0000889449 Z M 10.999994 0.0000889449 "
			transform="matrix(10.623379,18.367112,-18.400232,10.604257,250,217)" />
		<path
			style="fill:none;stroke-width:1;stroke-linecap:butt;stroke-linejoin:miter;stroke:rgb(38.039216%,85.490196%,98.431373%);stroke-opacity:1;stroke-miterlimit:4;"
			d="M 10.999994 -0.0000889449 C 11.00003 -2.319629 6.075164 -4.199999 0.0000418563 -4.200039 C -6.075081 -4.200079 -11.00005 -2.31961 -10.999994 0.0000889449 C -11.00003 2.319629 -6.075164 4.199999 -0.0000418563 4.200039 C 6.075081 4.200079 11.00005 2.31961 10.999994 -0.0000889449 Z M 10.999994 -0.0000889449 "
			transform="matrix(-10.623379,18.367112,-18.400232,-10.604257,250,217)" />
	</g>
</svg>