<?xml version="1.0" encoding="UTF-8"?>
<svg xmlns="http://www.w3.org/2000/svg" xmlns:xlink="http://www.w3.org/1999/xlink" width="500px" height="500px"
	viewBox="0 0 500 499" version="1.1">
	<g id="surface1">
		<path style=" stroke:none;fill-rule:nonzero;fill:rgb(0%,0%,0%);fill-opacity:1;"
			d="M 250.011719 19.070312 C 122.71875 19.070312 19.117188 122.511719 19.117188 249.5 C 19.117188 376.484375 122.765625 479.925781 250.011719 479.925781 C 377.25 479.925781 480.898438 376.484375 480.898438 249.5 C 480.898438 122.511719 377.25 19.070312 250.011719 19.070312 Z M 249.664062 39.542969 C 257.875 39.753906 264.417969 46.480469 264.417969 54.703125 C 264.417969 63.074219 257.617188 69.863281 249.226562 69.863281 C 240.839844 69.863281 234.039062 63.074219 234.039062 54.703125 C 234.039062 50.601562 235.695312 46.683594 238.640625 43.824219 C 241.585938 40.96875 245.558594 39.425781 249.664062 39.542969 Z M 284.445312 64.5 C 338.421875 74.589844 385.21875 107.855469 412.417969 155.464844 L 394.496094 195.828125 C 391.417969 202.796875 394.59375 210.984375 401.527344 214.105469 L 436.007812 229.367188 C 437.082031 240.121094 437.214844 250.953125 436.40625 261.734375 L 417.207031 261.734375 C 415.304688 261.734375 414.519531 263.003906 414.519531 264.855469 L 414.519531 273.628906 C 414.519531 294.300781 402.847656 298.832031 392.585938 299.953125 C 382.816406 301.074219 372.023438 295.859375 370.65625 289.914062 C 364.890625 257.589844 355.320312 250.71875 340.175781 238.773438 C 358.984375 226.878906 378.519531 209.28125 378.519531 185.785156 C 378.519531 160.390625 361.082031 144.398438 349.214844 136.550781 C 332.507812 125.582031 314.046875 123.386719 309.0625 123.386719 L 110.75 123.386719 C 138.175781 92.8125 174.933594 72.117188 215.328125 64.5 L 238.722656 88.976562 C 244 94.480469 252.742188 94.722656 258.265625 89.414062 Z M 68.546875 176.722656 C 76.765625 176.957031 83.300781 183.675781 83.300781 191.878906 C 83.300781 200.253906 76.496094 207.039062 68.105469 207.039062 C 59.722656 207.039062 52.917969 200.253906 52.917969 191.878906 C 52.917969 187.78125 54.578125 183.855469 57.523438 181 C 60.46875 178.148438 64.441406 176.601562 68.546875 176.722656 Z M 430.734375 177.402344 C 438.957031 177.636719 445.496094 184.355469 445.488281 192.558594 C 445.488281 200.933594 438.6875 207.722656 430.292969 207.722656 C 421.910156 207.722656 415.105469 200.933594 415.105469 192.558594 C 415.105469 188.460938 416.765625 184.542969 419.710938 181.683594 C 422.65625 178.828125 426.636719 177.28125 430.734375 177.402344 Z M 97.171875 179.835938 L 123.644531 179.835938 L 123.644531 298.976562 L 70.210938 298.976562 C 63.613281 275.851562 61.550781 251.667969 64.152344 227.757812 L 96.878906 213.230469 C 103.863281 210.109375 107.039062 201.96875 103.914062 195 Z M 207.660156 181.109375 L 270.71875 181.109375 C 273.992188 181.109375 293.726562 184.859375 293.726562 199.628906 C 293.726562 211.863281 278.585938 216.25 266.128906 216.25 L 207.609375 216.25 Z M 207.660156 266.703125 L 255.96875 266.703125 C 260.363281 266.703125 279.558594 267.976562 285.664062 292.445312 C 287.570312 299.953125 291.816406 324.425781 294.703125 332.273438 C 297.582031 341.046875 309.257812 358.597656 321.710938 358.597656 L 400.550781 358.597656 C 395.269531 365.660156 389.488281 372.332031 383.257812 378.582031 L 351.164062 371.707031 C 343.691406 370.101562 336.316406 374.878906 334.707031 382.335938 L 327.085938 417.824219 C 277.503906 440.242188 220.589844 439.976562 171.222656 417.09375 L 163.601562 381.609375 C 161.992188 374.148438 154.660156 369.367188 147.1875 370.980469 L 115.78125 377.703125 C 109.953125 371.703125 104.535156 365.320312 99.566406 358.597656 L 252.304688 358.597656 C 254.011719 358.597656 255.1875 358.304688 255.1875 356.691406 L 255.1875 302.777344 C 255.1875 301.222656 254.011719 300.882812 252.304688 300.882812 L 207.609375 300.882812 Z M 137.175781 390.183594 C 145.394531 390.421875 151.929688 397.136719 151.929688 405.34375 C 151.929688 413.71875 145.125 420.507812 136.734375 420.507812 C 128.34375 420.507812 121.546875 413.71875 121.546875 405.34375 C 121.542969 401.246094 123.207031 397.324219 126.152344 394.46875 C 129.089844 391.609375 133.070312 390.0625 137.175781 390.183594 Z M 362.113281 390.863281 C 370.328125 391.105469 376.867188 397.824219 376.859375 406.027344 C 376.859375 414.402344 370.058594 421.1875 361.671875 421.1875 C 353.28125 421.1875 346.476562 414.402344 346.476562 406.027344 C 346.476562 401.929688 348.136719 398.003906 351.082031 395.148438 C 354.027344 392.289062 358.007812 390.75 362.113281 390.863281 Z M 362.113281 390.863281 " />
		<path
			style="fill-rule:evenodd;fill:rgb(0%,0%,0%);fill-opacity:1;stroke-width:3;stroke-linecap:round;stroke-linejoin:round;stroke:rgb(0%,0%,0%);stroke-opacity:1;stroke-miterlimit:4;"
			d="M 115.680401 70.950245 C 115.680401 95.598052 95.697859 115.580574 71.050564 115.580574 C 46.401669 115.580574 26.419127 95.598052 26.419127 70.950245 C 26.419127 46.301635 46.401669 26.320716 71.050564 26.320716 C 95.697859 26.320716 115.680401 46.301635 115.680401 70.950245 Z M 114.839898 66.640745 L 121.800639 70.950245 L 114.839898 75.260546 L 120.820186 80.850556 L 113.160491 83.720083 L 117.940403 90.370239 L 109.84966 91.690014 L 113.250059 99.149503 L 105.060152 98.860227 L 106.940288 106.839773 L 98.959107 104.959876 L 99.249404 113.15017 L 91.789639 109.750168 L 90.470105 117.840297 L 83.820454 113.060422 L 80.950267 120.720242 L 75.360242 114.739989 L 71.050564 121.700256 L 66.739286 114.739989 L 61.15086 120.720242 L 58.279874 113.060422 L 51.629423 117.840297 L 50.309889 109.750168 L 42.850124 113.15017 L 43.140421 104.959876 L 35.15924 106.839773 L 37.039376 98.860227 L 28.849469 99.149503 L 32.250667 91.690014 L 24.160725 90.370239 L 28.939837 83.720083 L 21.280142 80.850556 L 27.25963 75.260546 L 20.299688 70.950245 L 27.25963 66.640745 L 21.280142 61.050735 L 28.939837 58.180406 L 24.160725 51.529448 L 32.250667 50.209674 L 28.849469 42.750184 L 37.039376 43.040262 L 35.15924 35.059113 L 43.140421 36.940613 L 42.850124 28.750319 L 50.309889 32.150321 L 51.629423 24.060192 L 58.279874 28.840868 L 61.15086 21.180247 L 66.739286 27.159699 L 71.050564 20.200233 L 75.360242 27.159699 L 80.950267 21.180247 L 83.820454 28.840868 L 90.470105 24.060192 L 91.789639 32.150321 L 99.249404 28.750319 L 98.959107 36.940613 L 106.940288 35.059113 L 105.060152 43.040262 L 113.250059 42.750184 L 109.84966 50.209674 L 117.940403 51.529448 L 113.160491 58.180406 L 120.820186 61.050735 Z M 114.839898 66.640745 "
			transform="matrix(4.884537,0,0,4.874768,-97.037391,-96.365979)" />
	</g>
</svg>