<?xml version="1.0" encoding="UTF-8"?>
<svg xmlns="http://www.w3.org/2000/svg" xmlns:xlink="http://www.w3.org/1999/xlink" width="500px" height="500px"
	viewBox="0 0 500 500" version="1.1">
	<g id="surface1">
		<path style=" stroke:none;fill-rule:nonzero;fill:rgb(19.215686%,47.058824%,77.647059%);fill-opacity:1;"
			d="M 48.828125 0 L 451.171875 0 C 478.140625 0 500 21.859375 500 48.828125 L 500 451.171875 C 500 478.140625 478.140625 500 451.171875 500 L 48.828125 500 C 21.859375 500 0 478.140625 0 451.171875 L 0 48.828125 C 0 21.859375 21.859375 0 48.828125 0 Z M 48.828125 0 " />
		<path style=" stroke:none;fill-rule:nonzero;fill:rgb(19.215686%,47.058824%,77.647059%);fill-opacity:1;"
			d="M 48.828125 0 L 451.171875 0 C 478.140625 0 500 21.859375 500 48.828125 L 500 451.171875 C 500 478.140625 478.140625 500 451.171875 500 L 48.828125 500 C 21.859375 500 0 478.140625 0 451.171875 L 0 48.828125 C 0 21.859375 21.859375 0 48.828125 0 Z M 48.828125 0 " />
		<path style=" stroke:none;fill-rule:evenodd;fill:rgb(100%,100%,100%);fill-opacity:1;"
			d="M 309.511719 397.875 L 309.511719 446.761719 C 317.457031 450.835938 326.855469 453.890625 337.707031 455.929688 C 348.5625 457.964844 359.996094 458.984375 372.019531 458.984375 C 383.738281 458.984375 394.867188 457.863281 405.414062 455.625 C 415.960938 453.382812 425.207031 449.691406 433.15625 444.546875 C 441.101562 439.40625 447.394531 432.683594 452.03125 424.382812 C 456.664062 416.082031 458.984375 405.820312 458.984375 393.597656 C 458.984375 384.734375 457.660156 376.96875 455.011719 370.300781 C 452.359375 363.628906 448.539062 357.695312 443.546875 352.5 C 438.554688 347.308594 432.570312 342.648438 425.589844 338.523438 C 418.609375 334.398438 410.738281 330.5 401.976562 326.835938 C 395.558594 324.1875 389.800781 321.617188 384.707031 319.121094 C 379.609375 316.625 375.28125 314.078125 371.714844 311.484375 C 368.148438 308.882812 365.398438 306.132812 363.460938 303.234375 C 361.527344 300.328125 360.558594 297.046875 360.558594 293.378906 C 360.558594 290.019531 361.421875 286.988281 363.15625 284.289062 C 364.886719 281.589844 367.332031 279.273438 370.492188 277.335938 C 373.652344 275.402344 377.523438 273.898438 382.105469 272.832031 C 386.691406 271.761719 391.785156 271.226562 397.390625 271.226562 C 401.464844 271.226562 405.769531 271.53125 410.304688 272.144531 C 414.839844 272.753906 419.398438 273.695312 423.984375 274.96875 C 428.570312 276.242188 433.027344 277.847656 437.359375 279.78125 C 441.6875 281.71875 445.6875 283.957031 449.355469 286.503906 L 449.355469 240.824219 C 441.917969 237.972656 433.792969 235.859375 424.976562 234.484375 C 416.164062 233.109375 406.050781 232.421875 394.640625 232.421875 C 383.023438 232.421875 372.019531 233.671875 361.628906 236.164062 C 351.234375 238.660156 342.089844 242.554688 334.191406 247.851562 C 326.296875 253.148438 320.054688 259.894531 315.472656 268.09375 C 310.886719 276.292969 308.59375 286.097656 308.59375 297.503906 C 308.59375 312.066406 312.796875 324.492188 321.203125 334.78125 C 329.609375 345.066406 342.371094 353.773438 359.488281 360.90625 C 366.210938 363.65625 372.480469 366.351562 378.285156 369 C 384.09375 371.648438 389.113281 374.398438 393.339844 377.25 C 397.570312 380.101562 400.90625 383.210938 403.351562 386.570312 C 405.796875 389.929688 407.019531 393.75 407.019531 398.027344 C 407.019531 401.1875 406.253906 404.113281 404.726562 406.8125 C 403.199219 409.511719 400.878906 411.851562 397.773438 413.839844 C 394.664062 415.828125 390.792969 417.378906 386.15625 418.5 C 381.519531 419.621094 376.097656 420.179688 369.878906 420.179688 C 359.285156 420.179688 348.789062 418.320312 338.394531 414.605469 C 328.003906 410.886719 318.375 405.3125 309.511719 397.875 Z M 227.324219 277.421875 L 290.039062 277.421875 L 290.039062 237.304688 L 115.234375 237.304688 L 115.234375 277.421875 L 177.640625 277.421875 L 177.640625 456.054688 L 227.324219 456.054688 Z M 227.324219 277.421875 " />
	</g>
</svg>